<svg xmlns="http://www.w3.org/2000/svg" width="20" height="20"  viewBox="0 0 20 20"><g transform="matrix(1 0 0 1 0 0)"  ><g style=""   ><g transform="matrix(0.83 0 0 0.83 5.42 10)"  ><path style="stroke: none; stroke-width: 1; stroke-dasharray: none; stroke-linecap: butt; stroke-dashoffset: 0; stroke-linejoin: miter; stroke-miterlimit: 4; fill: rgb(242,247,255); fill-rule: nonzero; opacity: 1;"  transform=" translate(-6.5, -12)" d="M 10.0879 3.01067 C 10.3373 2.98014 10.5904 3.00518 10.8291 3.08391 L 10.9473 3.12785 L 11.0615 3.17961 C 11.2861 3.29262 11.4828 3.45427 11.6377 3.65227 L 11.7119 3.75481 L 11.7783 3.86223 C 11.9228 4.11714 11.9995 4.40569 12 4.70012 L 12 19.2968 L 11.9951 19.4228 C 11.9738 19.7158 11.8777 19.9994 11.7139 20.245 C 11.5266 20.5257 11.2599 20.7447 10.9482 20.8739 C 10.6364 21.0032 10.2929 21.0366 9.96191 20.9706 C 9.6309 20.9047 9.32634 20.7427 9.08789 20.5038 L 5.7041 17.1181 C 5.66679 17.0806 5.62214 17.0505 5.57324 17.0302 C 5.52435 17.0099 5.47186 16.9998 5.41895 16.9999 L 3 16.9999 C 2.46957 16.9999 1.96101 16.7891 1.58594 16.414 C 1.25765 16.0857 1.05514 15.6552 1.00977 15.1972 L 1 14.9999 L 1 8.99992 C 1.00001 8.4695 1.21087 7.96093 1.58594 7.58586 C 1.96101 7.2108 2.46957 6.99992 3 6.99992 L 5.41895 6.99992 L 5.49805 6.99211 C 5.5237 6.98701 5.54896 6.97971 5.57324 6.96965 C 5.62214 6.94939 5.66679 6.9193 5.7041 6.88176 L 9.09082 3.49602 L 9.18262 3.41008 C 9.40496 3.21878 9.6738 3.08759 9.96289 3.0302 L 10.0879 3.01067 Z M 3 14.9999 L 5.41602 14.9999 C 5.73258 14.9994 6.04639 15.0614 6.33887 15.1825 C 6.63129 15.3037 6.8967 15.4818 7.12012 15.706 L 10 18.5859 L 10 5.41399 L 7.12012 8.29387 C 6.89671 8.51808 6.6313 8.69614 6.33887 8.81731 C 6.04639 8.93846 5.73258 8.99949 5.41602 8.99895 L 3 8.99992 L 3 14.9999 Z" stroke-linecap="round" /></g><g transform="matrix(0.83 0 0 0.83 13.75 10)"  ><path style="stroke: none; stroke-width: 1; stroke-dasharray: none; stroke-linecap: butt; stroke-dashoffset: 0; stroke-linejoin: miter; stroke-miterlimit: 4; fill: rgb(242,247,255); fill-rule: nonzero; opacity: 1;"  transform=" translate(-16.5, -12)" d="M 16 12 C 16 11.2427 15.7854 10.503 15.3838 9.86618 L 15.2002 9.59958 L 15.1426 9.51462 C 14.8813 9.08054 14.9863 8.51072 15.4004 8.20016 C 15.8146 7.88966 16.3909 7.9487 16.7344 8.32126 L 16.7998 8.40036 L 16.9414 8.59762 C 17.6295 9.59691 18 10.7829 18 12 C 18 13.2981 17.5787 14.561 16.7998 15.5996 C 16.4685 16.0414 15.8422 16.131 15.4004 15.7998 C 14.9586 15.4684 14.869 14.8422 15.2002 14.4004 C 15.7195 13.708 16 12.8654 16 12 Z" stroke-linecap="round" /></g><g transform="matrix(0.83 0 0 0.83 17.23 10)"  ><path style="stroke: none; stroke-width: 1; stroke-dasharray: none; stroke-linecap: butt; stroke-dashoffset: 0; stroke-linejoin: miter; stroke-miterlimit: 4; fill: rgb(242,247,255); fill-rule: nonzero; opacity: 1;"  transform=" translate(-20.68, -12)" d="M 20.9997 12.0003 C 20.9997 10.9498 20.7933 9.90926 20.3913 8.93873 C 20.0396 8.08951 19.5443 7.30788 18.9285 6.62818 L 18.657 6.34303 L 18.5886 6.26686 C 18.2683 5.87408 18.2909 5.29508 18.657 4.92896 C 19.0231 4.56285 19.6021 4.54025 19.9949 4.86061 L 20.071 4.92896 L 20.4099 5.28541 C 21.1799 6.13509 21.7993 7.11149 22.239 8.17311 C 22.7415 9.38636 22.9997 10.687 22.9997 12.0003 L 22.988 12.4915 C 22.9317 13.6366 22.6787 14.7649 22.239 15.8264 C 21.7364 17.0397 20.9996 18.143 20.071 19.0715 L 19.9949 19.1399 C 19.6022 19.46 19.023 19.4373 18.657 19.0715 C 18.2664 18.681 18.2664 18.047 18.657 17.6565 L 18.9285 17.3723 C 19.5444 16.6926 20.0395 15.911 20.3913 15.0618 C 20.7431 14.2126 20.9448 13.3098 20.99 12.3938 L 20.9997 12.0003 Z" stroke-linecap="round" /></g></g></g></svg>